<mxfile host="Electron" modified="2023-10-08T01:56:12.113Z" agent="Mozilla/5.0 (Windows NT 10.0; Win64; x64) AppleWebKit/537.36 (KHTML, like Gecko) draw.io/22.0.2 Chrome/114.0.5735.289 Electron/25.8.4 Safari/537.36" etag="AlUxRolNo-bA1ESUCAWK" version="22.0.2" type="device">
  <diagram name="Page-1" id="VcUktaGffmm4VJHGm6J6">
    <mxGraphModel dx="1264" dy="508" grid="1" gridSize="10" guides="1" tooltips="1" connect="1" arrows="1" fold="1" page="0" pageScale="1" pageWidth="850" pageHeight="1100" math="0" shadow="0">
      <root>
        <mxCell id="0" />
        <mxCell id="1" parent="0" />
        <mxCell id="m4T8zVkG21rNKowWo_u2-2" value="&lt;font style=&quot;font-size: 20px;&quot;&gt;User&lt;/font&gt;" style="rounded=0;whiteSpace=wrap;html=1;" parent="1" vertex="1">
          <mxGeometry x="-60" y="40" width="160" height="80" as="geometry" />
        </mxCell>
        <mxCell id="m4T8zVkG21rNKowWo_u2-3" value="&lt;font style=&quot;font-size: 20px;&quot;&gt;Admin&lt;/font&gt;" style="rounded=0;whiteSpace=wrap;html=1;" parent="1" vertex="1">
          <mxGeometry x="680" y="40" width="160" height="80" as="geometry" />
        </mxCell>
        <mxCell id="m4T8zVkG21rNKowWo_u2-4" value="" style="endArrow=classic;html=1;rounded=1;entryX=0.5;entryY=1;entryDx=0;entryDy=0;exitX=0;exitY=0.75;exitDx=0;exitDy=0;" parent="1" source="fXHiJYoQpdV5fUgyzCC0-2" target="m4T8zVkG21rNKowWo_u2-2" edge="1">
          <mxGeometry width="50" height="50" relative="1" as="geometry">
            <mxPoint x="280" y="220" as="sourcePoint" />
            <mxPoint x="370" y="280" as="targetPoint" />
            <Array as="points">
              <mxPoint x="20" y="280" />
            </Array>
          </mxGeometry>
        </mxCell>
        <mxCell id="m4T8zVkG21rNKowWo_u2-6" value="" style="endArrow=classic;html=1;rounded=1;entryX=0.5;entryY=1;entryDx=0;entryDy=0;exitX=1;exitY=0.5;exitDx=0;exitDy=0;" parent="1" source="fXHiJYoQpdV5fUgyzCC0-2" target="m4T8zVkG21rNKowWo_u2-3" edge="1">
          <mxGeometry width="50" height="50" relative="1" as="geometry">
            <mxPoint x="500" y="220" as="sourcePoint" />
            <mxPoint x="640" y="210" as="targetPoint" />
            <Array as="points">
              <mxPoint x="760" y="220" />
            </Array>
          </mxGeometry>
        </mxCell>
        <mxCell id="m4T8zVkG21rNKowWo_u2-7" value="" style="endArrow=classic;html=1;rounded=1;exitX=0.75;exitY=1;exitDx=0;exitDy=0;entryX=0;entryY=0.5;entryDx=0;entryDy=0;" parent="1" source="m4T8zVkG21rNKowWo_u2-2" target="fXHiJYoQpdV5fUgyzCC0-2" edge="1">
          <mxGeometry width="50" height="50" relative="1" as="geometry">
            <mxPoint x="110" y="240" as="sourcePoint" />
            <mxPoint x="285.05999999999995" y="185.89999999999998" as="targetPoint" />
            <Array as="points">
              <mxPoint x="60" y="220" />
            </Array>
          </mxGeometry>
        </mxCell>
        <mxCell id="m4T8zVkG21rNKowWo_u2-8" value="&lt;font style=&quot;font-size: 15px;&quot;&gt;Register / Login&lt;/font&gt;" style="text;html=1;strokeColor=none;fillColor=none;align=center;verticalAlign=middle;whiteSpace=wrap;rounded=0;" parent="1" vertex="1">
          <mxGeometry x="120" y="180" width="110" height="30" as="geometry" />
        </mxCell>
        <mxCell id="m4T8zVkG21rNKowWo_u2-10" value="&lt;font style=&quot;font-size: 15px;&quot;&gt;View Test Result&lt;/font&gt;" style="text;html=1;strokeColor=none;fillColor=none;align=center;verticalAlign=middle;whiteSpace=wrap;rounded=0;" parent="1" vertex="1">
          <mxGeometry x="75" y="311" width="200" height="30" as="geometry" />
        </mxCell>
        <mxCell id="m4T8zVkG21rNKowWo_u2-11" value="&lt;span style=&quot;font-size: 15px;&quot;&gt;CRUD Questions&lt;/span&gt;" style="text;html=1;strokeColor=none;fillColor=none;align=center;verticalAlign=middle;whiteSpace=wrap;rounded=0;" parent="1" vertex="1">
          <mxGeometry x="540" y="290" width="200" height="30" as="geometry" />
        </mxCell>
        <mxCell id="fXHiJYoQpdV5fUgyzCC0-1" value="" style="group" parent="1" vertex="1" connectable="0">
          <mxGeometry x="290" y="101" width="216" height="240" as="geometry" />
        </mxCell>
        <mxCell id="fXHiJYoQpdV5fUgyzCC0-2" value="" style="rounded=1;whiteSpace=wrap;html=1;" parent="fXHiJYoQpdV5fUgyzCC0-1" vertex="1">
          <mxGeometry width="216" height="240" as="geometry" />
        </mxCell>
        <mxCell id="fXHiJYoQpdV5fUgyzCC0-3" value="" style="endArrow=none;html=1;exitX=0;exitY=0.25;exitDx=0;exitDy=0;entryX=1;entryY=0.25;entryDx=0;entryDy=0;curved=1;" parent="fXHiJYoQpdV5fUgyzCC0-1" source="fXHiJYoQpdV5fUgyzCC0-2" target="fXHiJYoQpdV5fUgyzCC0-2" edge="1">
          <mxGeometry width="50" height="50" relative="1" as="geometry">
            <mxPoint x="120" y="180" as="sourcePoint" />
            <mxPoint x="180" y="120" as="targetPoint" />
            <Array as="points">
              <mxPoint x="108" y="96" />
            </Array>
          </mxGeometry>
        </mxCell>
        <mxCell id="fXHiJYoQpdV5fUgyzCC0-5" value="&lt;font style=&quot;font-size: 25px;&quot;&gt;Online&lt;br style=&quot;border-color: var(--border-color);&quot;&gt;Entrance&amp;nbsp;&lt;br style=&quot;border-color: var(--border-color);&quot;&gt;Preparation&lt;/font&gt;" style="text;html=1;strokeColor=none;fillColor=none;align=center;verticalAlign=middle;whiteSpace=wrap;rounded=0;" parent="fXHiJYoQpdV5fUgyzCC0-1" vertex="1">
          <mxGeometry x="22.285714285714285" y="125.7142857142857" width="171.42857142857142" height="34.28571428571428" as="geometry" />
        </mxCell>
        <mxCell id="fXHiJYoQpdV5fUgyzCC0-6" value="&lt;font style=&quot;font-size: 15px;&quot;&gt;Take Model Test&lt;/font&gt;" style="text;html=1;strokeColor=none;fillColor=none;align=center;verticalAlign=middle;whiteSpace=wrap;rounded=0;" parent="1" vertex="1">
          <mxGeometry x="75" y="281" width="200" height="30" as="geometry" />
        </mxCell>
        <mxCell id="fXHiJYoQpdV5fUgyzCC0-7" value="" style="endArrow=classic;html=1;rounded=1;entryX=1;entryY=0.75;entryDx=0;entryDy=0;exitX=0.75;exitY=1;exitDx=0;exitDy=0;" parent="1" source="m4T8zVkG21rNKowWo_u2-3" target="fXHiJYoQpdV5fUgyzCC0-2" edge="1">
          <mxGeometry width="50" height="50" relative="1" as="geometry">
            <mxPoint x="530" y="301" as="sourcePoint" />
            <mxPoint x="784" y="200" as="targetPoint" />
            <Array as="points">
              <mxPoint x="800" y="281" />
            </Array>
          </mxGeometry>
        </mxCell>
        <mxCell id="fXHiJYoQpdV5fUgyzCC0-8" value="&lt;span style=&quot;font-size: 15px;&quot;&gt;Responses&lt;/span&gt;" style="text;html=1;strokeColor=none;fillColor=none;align=center;verticalAlign=middle;whiteSpace=wrap;rounded=0;" parent="1" vertex="1">
          <mxGeometry x="540" y="180" width="200" height="30" as="geometry" />
        </mxCell>
      </root>
    </mxGraphModel>
  </diagram>
</mxfile>
